<?xml version="1.0" standalone="no"?>
<!DOCTYPE svg PUBLIC "-//W3C//DTD SVG 20010904//EN"
 "http://www.w3.org/TR/2001/REC-SVG-20010904/DTD/svg10.dtd">
<svg version="1.0" xmlns="http://www.w3.org/2000/svg"
 width="818.000000pt" height="818.000000pt" viewBox="0 0 818.000000 818.000000"
 preserveAspectRatio="xMidYMid meet">
<metadata>
Created by potrace 1.14, written by Peter Selinger 2001-2017
</metadata>
<g transform="translate(0.000000,818.000000) scale(0.100000,-0.100000)"
fill="#000000" stroke="none">
<path d="M4890 6061 l0 -619 -47 -16 c-27 -8 -187 -53 -358 -100 -170 -47
-499 -137 -730 -201 -231 -63 -428 -118 -437 -121 -17 -5 -18 26 -18 565 l0
571 -250 0 -250 0 0 -638 0 -639 -37 -11 c-21 -6 -345 -95 -721 -198 l-682
-188 0 -253 c0 -139 3 -253 8 -253 4 0 326 88 716 195 390 107 711 195 713
195 1 0 3 -411 3 -913 0 -760 3 -932 15 -1029 35 -266 133 -476 297 -634 136
-132 282 -209 480 -251 99 -21 382 -24 520 -5 105 15 275 62 375 103 l73 31 0
300 0 299 -27 -19 c-51 -35 -189 -100 -269 -126 -157 -50 -430 -78 -571 -57
-198 29 -289 111 -360 321 l-28 85 -3 1017 -3 1016 53 16 c141 40 1477 405
1506 411 l32 7 0 -950 c0 -614 4 -978 11 -1027 14 -106 63 -273 104 -358 122
-256 341 -438 610 -508 268 -71 655 -39 944 77 l91 36 0 294 c0 162 -2 294 -4
294 -2 0 -45 -22 -97 -49 -175 -93 -335 -133 -569 -146 -334 -17 -479 69 -562
335 l-23 75 0 1034 0 1034 195 53 c107 30 429 118 715 197 l520 143 3 257 c2
204 0 256 -10 252 -40 -14 -1409 -385 -1421 -385 -4 0 -7 248 -7 550 l0 550
-250 0 -250 0 0 -619z"/>
</g>
</svg>
